<svg width="147" height="147" xmlns="http://www.w3.org/2000/svg" xmlns:xlink="http://www.w3.org/1999/xlink" xml:space="preserve" overflow="hidden"><g transform="translate(-565 -295)"><path d="M661.009 376.89C660.97 378.768 662.46 380.324 664.339 380.364 666.218 380.403 667.773 378.913 667.813 377.034 667.814 376.986 667.814 376.938 667.813 376.89 667.813 374.63 664.41 369.581 664.41 369.581 664.41 369.581 661.009 374.616 661.009 376.89Z" fill="#FFFFFF"/><path d="M653.309 389.425C655.188 389.425 656.711 387.901 656.711 386.022 656.711 386.021 656.711 386.02 656.711 386.019 656.711 383.76 653.309 378.712 653.309 378.712 653.309 378.712 649.906 383.747 649.906 386.019 649.905 387.898 651.427 389.423 653.306 389.425 653.307 389.425 653.308 389.425 653.309 389.425Z" fill="#FFFFFF"/><path d="M672.889 394.531C674.815 394.479 676.337 392.879 676.291 390.953 676.291 388.693 672.889 383.644 672.889 383.644 672.889 383.644 669.486 388.68 669.486 390.953 669.441 392.879 670.963 394.479 672.889 394.531Z" fill="#FFFFFF"/><path d="M660.793 364.333C660.844 365.836 662.103 367.014 663.606 366.963 665.075 366.914 666.239 365.708 666.237 364.239L666.237 352.561C666.234 351.058 665.013 349.841 663.509 349.844 662.006 349.847 660.789 351.068 660.792 352.572 660.792 352.6 660.793 352.629 660.793 352.658L660.63 355.827 622.728 355.827 634.24 344.315C634.405 344.144 634.547 343.952 634.663 343.744 644.46 332.355 643.17 315.18 631.78 305.382 620.391 295.585 603.216 296.875 593.418 308.264 587.916 314.66 585.693 323.247 587.401 331.51L576.513 342.397C575.45 343.46 575.45 345.184 576.513 346.247 576.513 346.247 576.513 346.248 576.513 346.248L602.536 372.212C603.596 373.275 605.318 373.277 606.381 372.217 606.383 372.215 606.385 372.213 606.387 372.212L611.204 367.394 660.793 361.68ZM608.272 314.487C607.211 313.423 605.489 313.421 604.426 314.481 604.424 314.483 604.422 314.485 604.42 314.487L592.308 326.597C591.961 314.577 601.424 304.552 613.444 304.205 625.463 303.858 635.489 313.32 635.836 325.34 635.969 329.939 634.641 334.462 632.044 338.259Z" fill="#FFFFFF"/><path d="M687.783 430.906C685.187 428.46 681.754 427.099 678.187 427.099 677.728 427.099 677.268 427.125 676.809 427.17L675.746 427.43 675.631 421.481C675.7 419.836 676.075 418.219 676.737 416.711 677.609 414.525 679.167 412.68 681.177 411.455 685.033 411.504 692.023 410.92 696.386 406.555 702.664 400.276 701.12 388.565 701.12 388.565 701.12 388.565 689.4 387.028 683.125 393.306 678.625 397.807 678.146 405.105 678.234 408.871 676.147 410.413 674.496 412.471 673.445 414.843 673.2 414.456 672.932 414.083 672.642 413.729 672.711 410.615 672.304 404.641 668.614 400.95 663.446 395.782 653.799 397.052 653.799 397.052 653.799 397.052 652.531 406.699 657.697 411.865 661.042 415.211 666.26 415.857 669.528 415.898 670.441 417.035 671.133 418.334 671.567 419.726 671.701 420.301 671.755 420.892 671.728 421.481L671.728 428.678C670.43 429.345 669.245 430.211 668.215 431.245 661.426 428.043 653.32 430.76 649.831 437.406L698.505 437.406C696.149 433.677 692.179 431.271 687.783 430.906Z" fill="#FFFFFF"/></g></svg>